<svg xmlns="http://www.w3.org/2000/svg" width="84" height="84" fill="none"><path fill="#000" fill-rule="evenodd" d="M42.0001 8.3787 4.4395 45.9393l2.1213 2.1213L14 40.6213V78h-4v3h65v-3h-5V40.6213l7.4394 7.4393 2.1213-2.1213-9.5607-9.5606V9h-14v13.3787zm17 17 8 8V12h-8zm8 12.2426-25-25-25 25V78h50zM34 50v24h16V50zm3 21V53h10v18zM21 50h3v4h-3zm9 0h-3v4h3zm-9 6h3v4h-3zm9 0h-3v4h3zm24-6h3v4h-3zm9 0h-3v4h3zm-9 6h3v4h-3zm9 0h-3v4h3zM37 36c0-2.7614 2.2386-5 5-5s5 2.2386 5 5-2.2386 5-5 5-5-2.2386-5-5m5-8c-4.4183 0-8 3.5817-8 8s3.5817 8 8 8 8-3.5817 8-8-3.5817-8-8-8" clip-rule="evenodd"/></svg>